<?xml version="1.0" encoding="UTF-8" standalone="no"?>
<!-- Created with Inkscape (http://www.inkscape.org/) -->

<svg
   width="1000"
   height="1000"
   viewBox="0 0 264.58333 264.58333"
   version="1.1"
   id="svg1"
   inkscape:version="1.4.4 (dcaf3e7, 2026-05-05)"
   sodipodi:docname="Icon.svg"
   xmlns:inkscape="http://www.inkscape.org/namespaces/inkscape"
   xmlns:sodipodi="http://sodipodi.sourceforge.net/DTD/sodipodi-0.dtd"
   xmlns:xlink="http://www.w3.org/1999/xlink"
   xmlns="http://www.w3.org/2000/svg"
   xmlns:svg="http://www.w3.org/2000/svg">
  <sodipodi:namedview
     id="namedview1"
     pagecolor="#505050"
     bordercolor="#eeeeee"
     borderopacity="1"
     inkscape:showpageshadow="0"
     inkscape:pageopacity="0"
     inkscape:pagecheckerboard="0"
     inkscape:deskcolor="#505050"
     inkscape:document-units="px"
     inkscape:zoom="0.71891835"
     inkscape:cx="478.49662"
     inkscape:cy="544.5681"
     inkscape:window-width="1920"
     inkscape:window-height="1009"
     inkscape:window-x="-8"
     inkscape:window-y="-8"
     inkscape:window-maximized="1"
     inkscape:current-layer="layer1"
     showguides="false" />
  <defs
     id="defs1">
    <linearGradient
       id="linearGradient31"
       inkscape:collect="always">
      <stop
         style="stop-color:#d9d9d9;stop-opacity:1;"
         offset="0"
         id="stop32" />
      <stop
         style="stop-color:#d4d4d4;stop-opacity:1;"
         offset="1"
         id="stop33" />
    </linearGradient>
    <linearGradient
       id="linearGradient29"
       inkscape:collect="always">
      <stop
         style="stop-color:#d9d9d9;stop-opacity:1;"
         offset="0"
         id="stop30" />
      <stop
         style="stop-color:#d4d4d4;stop-opacity:1;"
         offset="1"
         id="stop31" />
    </linearGradient>
    <linearGradient
       id="linearGradient27"
       inkscape:collect="always">
      <stop
         style="stop-color:#d9d9d9;stop-opacity:1;"
         offset="0"
         id="stop28" />
      <stop
         style="stop-color:#d3d3d3;stop-opacity:1;"
         offset="1"
         id="stop29" />
    </linearGradient>
    <linearGradient
       id="linearGradient25"
       inkscape:collect="always">
      <stop
         style="stop-color:#d9d9d9;stop-opacity:1;"
         offset="0"
         id="stop26" />
      <stop
         style="stop-color:#d4d4d4;stop-opacity:1;"
         offset="1"
         id="stop27" />
    </linearGradient>
    <linearGradient
       id="linearGradient23"
       inkscape:collect="always">
      <stop
         style="stop-color:#d9d9d9;stop-opacity:1;"
         offset="0"
         id="stop24" />
      <stop
         style="stop-color:#d4d4d4;stop-opacity:1;"
         offset="1"
         id="stop25" />
    </linearGradient>
    <linearGradient
       id="linearGradient21"
       inkscape:collect="always">
      <stop
         style="stop-color:#191919;stop-opacity:1;"
         offset="0"
         id="stop22" />
      <stop
         style="stop-color:#000000;stop-opacity:1;"
         offset="1"
         id="stop23" />
    </linearGradient>
    <linearGradient
       id="linearGradient20"
       inkscape:collect="always">
      <stop
         style="stop-color:#ffffff;stop-opacity:1;"
         offset="0"
         id="stop20" />
      <stop
         style="stop-color:#e5e5e5;stop-opacity:1;"
         offset="1"
         id="stop21" />
    </linearGradient>
    <linearGradient
       id="linearGradient8"
       inkscape:collect="always">
      <stop
         style="stop-color:#ffd429;stop-opacity:1;"
         offset="0"
         id="stop8" />
      <stop
         style="stop-color:#ffcc01;stop-opacity:1;"
         offset="1"
         id="stop9" />
    </linearGradient>
    <linearGradient
       id="linearGradient4"
       inkscape:collect="always">
      <stop
         style="stop-color:#b8b8b8;stop-opacity:1;"
         offset="0"
         id="stop5" />
      <stop
         style="stop-color:#b2b2b2;stop-opacity:1;"
         offset="1"
         id="stop6" />
    </linearGradient>
    <radialGradient
       inkscape:collect="always"
       xlink:href="#linearGradient4"
       id="radialGradient6"
       cx="132.29167"
       cy="132.29167"
       fx="132.29167"
       fy="132.29167"
       r="132.29167"
       gradientUnits="userSpaceOnUse"
       gradientTransform="translate(-1.3505859e-5,-1.3505859e-5)" />
    <radialGradient
       inkscape:collect="always"
       xlink:href="#linearGradient8"
       id="radialGradient9"
       cx="132.29166"
       cy="132.29167"
       fx="132.29166"
       fy="132.29167"
       r="84.604858"
       gradientTransform="matrix(0.4356,0,0,0.46619306,141.47186,135.61281)"
       gradientUnits="userSpaceOnUse" />
    <radialGradient
       inkscape:collect="always"
       xlink:href="#linearGradient20"
       id="radialGradient21"
       cx="132.29166"
       cy="132.29166"
       fx="132.29166"
       fy="132.29166"
       r="105.83333"
       gradientTransform="matrix(1,0,0,0.67500003,0,42.994787)"
       gradientUnits="userSpaceOnUse" />
    <radialGradient
       inkscape:collect="always"
       xlink:href="#linearGradient21"
       id="radialGradient23"
       cx="132.29167"
       cy="132.29167"
       fx="132.29167"
       fy="132.29167"
       r="62.865002"
       gradientTransform="matrix(1,0,0,0.66000001,0,44.979165)"
       gradientUnits="userSpaceOnUse" />
    <radialGradient
       inkscape:collect="always"
       xlink:href="#linearGradient23"
       id="radialGradient25"
       cx="132.29167"
       cy="187.98404"
       fx="132.29167"
       fy="187.98404"
       r="8.4666662"
       gradientUnits="userSpaceOnUse" />
    <radialGradient
       inkscape:collect="always"
       xlink:href="#linearGradient25"
       id="radialGradient27"
       cx="175.63048"
       cy="100.07712"
       fx="175.63048"
       fy="100.07712"
       r="8.4666662"
       gradientUnits="userSpaceOnUse" />
    <radialGradient
       inkscape:collect="always"
       xlink:href="#linearGradient27"
       id="radialGradient29"
       cx="41.442276"
       cy="100.04814"
       fx="41.442276"
       fy="100.04814"
       r="8.4666662"
       gradientUnits="userSpaceOnUse" />
    <radialGradient
       inkscape:collect="always"
       xlink:href="#linearGradient29"
       id="radialGradient31"
       cx="48.556341"
       cy="132.25545"
       fx="48.556341"
       fy="132.25545"
       r="16.255996"
       gradientTransform="translate(0)"
       gradientUnits="userSpaceOnUse" />
    <radialGradient
       inkscape:collect="always"
       xlink:href="#linearGradient31"
       id="radialGradient33"
       cx="209.8816"
       cy="130.59832"
       fx="209.8816"
       fy="130.59832"
       r="20.319995"
       gradientUnits="userSpaceOnUse" />
  </defs>
  <g
     inkscape:label="Background"
     inkscape:groupmode="layer"
     id="layer1"
     style="display:inline">
    <rect
       style="display:inline;fill:url(#radialGradient6);stroke-width:0.264583"
       id="rect1"
       width="264.58334"
       height="264.58334"
       x="-1.3505859e-05"
       y="-1.3505859e-05"
       inkscape:label="Background"
       ry="50.270832" />
  </g>
  <g
     inkscape:groupmode="layer"
     id="layer2"
     inkscape:label="Foreground">
    <g
       id="g9"
       inkscape:label="Gamepad">
      <rect
         style="fill:url(#radialGradient21);fill-opacity:1;stroke-width:0.3803"
         id="rect10"
         width="211.66666"
         height="142.875"
         x="26.458336"
         y="60.854164"
         ry="45.243748"
         inkscape:label="Background" />
      <rect
         style="fill:url(#radialGradient23);fill-opacity:1;stroke-width:0.223374"
         id="rect9"
         width="125.73"
         height="82.981804"
         x="69.426666"
         y="90.800766"
         ry="26.277569"
         inkscape:label="Screen" />
      <circle
         style="fill:url(#radialGradient25);fill-opacity:1;stroke-width:0.133897"
         id="path10"
         cx="132.29167"
         cy="187.98404"
         inkscape:label="Home Button"
         r="8.4666662" />
      <g
         id="g19"
         inkscape:label="Controls"
         transform="translate(0,8.7720325)">
        <path
           id="circle17"
           style="fill:url(#radialGradient33);stroke-width:0.107117"
           inkscape:label="ABXY"
           d="m 216.65492,144.14499 a 6.7733331,6.7733331 0 0 1 -6.77333,6.77333 6.7733331,6.7733331 0 0 1 -6.77333,-6.77333 6.7733331,6.7733331 0 0 1 6.77333,-6.77333 6.7733331,6.7733331 0 0 1 6.77333,6.77333 z m 0,-27.09332 a 6.7733331,6.7733331 0 0 1 -6.77333,6.77333 6.7733331,6.7733331 0 0 1 -6.77333,-6.77333 6.7733331,6.7733331 0 0 1 6.77333,-6.77334 6.7733331,6.7733331 0 0 1 6.77333,6.77334 z m 13.54667,13.54666 a 6.7733331,6.7733331 0 0 1 -6.77334,6.77333 6.7733331,6.7733331 0 0 1 -6.77333,-6.77333 6.7733331,6.7733331 0 0 1 6.77333,-6.77334 6.7733331,6.7733331 0 0 1 6.77334,6.77334 z m -27.09333,0 a 6.7733331,6.7733331 0 0 1 -6.77333,6.77333 6.7733331,6.7733331 0 0 1 -6.77333,-6.77333 6.7733331,6.7733331 0 0 1 6.77333,-6.77334 6.7733331,6.7733331 0 0 1 6.77333,6.77334 z"
           transform="matrix(0.8,0,0,0.8,48.386317,27.81301)" />
        <path
           id="rect18"
           style="fill:url(#radialGradient31);stroke-width:0.266393"
           d="m 53.938769,119.44411 v 25.62267 c 0,1.90834 -1.53632,3.44466 -3.444656,3.44466 h -3.875552 c -1.908336,0 -3.444656,-1.53632 -3.444656,-3.44466 v -25.62267 c 0,-1.90834 1.53632,-3.44466 3.444656,-3.44466 h 3.875552 c 1.908336,0 3.444656,1.53632 3.444656,3.44466 z m -18.19376,7.4289 h 25.622664 c 1.908344,0 3.444664,1.53632 3.444664,3.44466 v 3.87555 c 0,1.90834 -1.53632,3.44466 -3.444664,3.44466 H 35.745009 c -1.908344,0 -3.444664,-1.53632 -3.444664,-3.44466 v -3.87555 c 0,-1.90834 1.53632,-3.44466 3.444664,-3.44466 z"
           inkscape:label="D-Pad" />
        <g
           id="g18"
           inkscape:label="Sticks"
           transform="matrix(1.25,0,0,1.25,-3.246508,-26.756519)">
          <circle
             style="fill:url(#radialGradient29);fill-opacity:1;stroke-width:0.133897"
             id="circle18"
             cx="41.442276"
             cy="100.04814"
             inkscape:label="Left Stick"
             r="8.4666662" />
          <circle
             style="fill:url(#radialGradient27);fill-opacity:1;stroke-width:0.133897"
             id="circle19"
             cx="175.63048"
             cy="100.07712"
             inkscape:label="Right Stick"
             r="8.4666662" />
        </g>
      </g>
    </g>
    <path
       id="path6"
       style="display:inline;fill:url(#radialGradient9);stroke-width:0.0922013"
       inkscape:label="Moon"
       d="m 197.53545,157.84409 a 39.448911,39.48836 0 0 1 5.15611,19.51855 39.448911,39.48836 0 0 1 -39.44895,39.48839 39.448911,39.48836 0 0 1 -0.99838,-0.0126 39.448911,39.448911 0 0 0 34.2588,19.89006 39.448911,39.448911 0 0 0 39.44896,-39.44895 39.448911,39.448911 0 0 0 -38.41654,-39.43544 z" />
  </g>
</svg>
